<svg xmlns="http://www.w3.org/2000/svg" viewBox="0 0 512 512">
  <rect width="512" height="512" rx="96" fill="#16a34a"/>
  <text x="256" y="148" text-anchor="middle" font-size="130" font-weight="800"
        fill="white" font-family="system-ui,sans-serif" letter-spacing="0">TM</text>
  <path d="M 335,326 L 332,322 L 335,320 L 338,319 L 343,316 L 348,315 L 352,316 L 353,320 L 355,322 L 359,323 L 362,325 L 366,326 L 368,327 L 369,329 L 370,331 L 369,333 L 372,333 L 372,334 L 370,336 L 368,338 L 368,340 L 371,340 L 370,342 L 370,343 L 365,345 L 361,346 L 358,347 L 354,345 L 350,343 L 345,342 L 346,343 L 347,345 L 345,345 L 344,343 L 343,342 L 339,339 L 335,338 L 336,336 L 334,334 L 335,332 L 337,327 Z M 382,332 L 382,329 L 385,325 L 383,325 L 379,325 L 379,324 L 378,323 L 378,321 L 375,320 L 377,316 L 376,314 L 373,314 L 371,315 L 369,317 L 364,317 L 359,317 L 358,316 L 357,314 L 355,313 L 353,313 L 351,315 L 353,319 L 355,321 L 357,322 L 360,324 L 364,325 L 367,326 L 369,328 L 370,330 L 369,332 L 371,332 L 372,334 L 371,336 L 368,337 L 369,340 L 370,340 L 370,341 L 373,340 L 375,338 L 378,336 L 380,334 Z M 406,326 L 404,326 L 403,325 L 401,325 L 400,325 L 399,324 L 398,324 L 395,323 L 393,323 L 391,323 L 391,321 L 391,319 L 388,319 L 386,319 L 382,319 L 380,318 L 379,317 L 376,318 L 375,321 L 378,321 L 378,323 L 380,324 L 379,325 L 382,325 L 386,325 L 383,327 L 383,330 L 381,333 L 381,335 L 381,336 L 384,338 L 388,336 L 390,336 L 395,340 L 395,342 L 398,340 L 401,340 L 403,338 L 410,330 L 410,328 L 410,327 L 406,326 Z M 419,329 L 416,329 L 414,329 L 412,329 L 410,328 L 410,327 L 406,326 L 404,326 L 403,325 L 401,325 L 400,325 L 398,323 L 398,321 L 400,321 L 400,319 L 400,318 L 401,317 L 402,317 L 403,318 L 405,318 L 406,317 L 406,316 L 407,315 L 409,315 L 411,312 L 412,314 L 413,313 L 415,313 L 418,314 L 419,315 L 420,317 L 420,318 L 420,319 L 420,320 L 422,322 L 420,322 L 421,324 L 421,325 L 424,326 L 421,329 L 420,330 Z M 420,321 L 421,322 L 422,322 L 421,321 L 420,320 L 420,319 L 420,319 L 420,319 L 420,318 L 420,318 L 420,317 L 420,316 L 419,315 L 420,315 L 420,315 L 421,316 L 422,317 L 423,316 L 424,317 L 426,318 L 428,318 L 429,317 L 429,317 L 432,316 L 433,315 L 435,315 L 437,316 L 442,316 L 439,323 L 435,329 L 431,332 L 429,332 L 428,330 L 424,328 L 424,326 L 421,326 L 421,325 L 421,324 L 421,323 L 421,322 L 420,322 Z M 438,336 L 438,336 L 437,335 L 436,335 L 436,335 L 434,335 L 433,335 L 432,334 L 433,332 L 434,329 L 436,326 L 438,324 L 441,320 L 442,316 L 445,312 L 445,311 L 445,311 L 445,310 L 446,309 L 447,309 L 447,309 L 449,312 L 454,317 L 459,321 L 456,322 L 455,321 L 454,323 L 455,324 L 457,325 L 456,326 L 454,328 L 455,329 L 453,329 L 452,328 L 450,327 L 447,327 L 447,333 L 444,334 L 443,336 L 442,337 L 440,337 L 438,336 Z M 432,348 L 432,347 L 432,346 L 431,345 L 431,343 L 432,341 L 432,340 L 434,337 L 433,335 L 432,334 L 431,332 L 430,332 L 429,332 L 429,332 L 429,332 L 428,333 L 428,333 L 426,334 L 426,334 L 425,335 L 424,335 L 424,335 L 423,335 L 422,336 L 423,337 L 423,337 L 423,338 L 423,338 L 423,338 L 423,339 L 422,340 L 422,341 L 421,341 L 421,342 L 420,343 L 419,344 L 418,344 L 417,345 L 417,346 L 419,347 L 419,348 L 418,350 L 420,352 L 420,356 L 432,353 Z M 395,365 L 392,367 L 388,367 L 388,367 L 390,369 L 388,371 L 386,373 L 385,375 L 383,374 L 381,373 L 381,376 L 380,377 L 379,379 L 378,377 L 377,375 L 373,376 L 371,375 L 370,373 L 371,372 L 372,369 L 370,366 L 370,364 L 375,365 L 378,366 L 381,362 L 381,359 L 381,356 L 381,354 L 379,352 L 377,349 L 380,348 L 382,349 L 383,351 L 386,353 L 388,356 L 391,357 L 394,358 L 397,359 L 396,360 L 395,362 L 396,364 Z M 386,375 L 388,378 L 391,379 L 394,379 L 395,380 L 397,382 L 398,383 L 400,382 L 403,382 L 403,384 L 404,386 L 416,387 L 429,382 L 450,427 L 423,410 L 411,407 L 407,407 L 404,408 L 397,410 L 390,411 L 387,408 L 390,404 L 388,401 L 382,400 L 377,396 L 374,389 L 372,385 L 367,384 L 367,382 L 367,380 L 370,380 L 373,380 L 376,382 L 379,382 L 379,380 L 379,378 L 380,377 L 381,376 L 381,373 L 381,374 L 384,374 L 386,375 Z M 366,384 L 368,380 L 373,380 L 379,381 L 378,377 L 374,376 L 370,374 L 370,372 L 371,368 L 370,364 L 378,367 L 381,361 L 381,356 L 380,353 L 376,348 L 375,345 L 371,344 L 364,345 L 358,347 L 351,345 L 346,342 L 347,344 L 345,345 L 344,342 L 340,340 L 334,339 L 332,339 L 333,342 L 333,344 L 333,349 L 336,353 L 333,357 L 332,359 L 334,362 L 335,365 L 335,367 L 334,369 L 344,371 L 352,375 L 357,378 L 364,383 Z M 333,357 L 333,357 L 331,356 L 331,356 L 331,355 L 331,356 L 330,356 L 329,356 L 330,355 L 329,355 L 328,355 L 327,354 L 326,354 L 326,355 L 325,355 L 324,355 L 324,356 L 323,356 L 322,357 L 321,359 L 321,363 L 324,366 L 326,368 L 330,368 L 333,369 L 334,369 L 334,369 L 334,368 L 334,367 L 335,368 L 336,367 L 336,366 L 335,365 L 335,364 L 335,363 L 334,363 L 334,362 L 333,361 L 332,360 L 332,359 L 333,358 L 333,357 L 333,357 Z M 399,354 L 400,356 L 400,357 L 399,358 L 397,359 L 395,359 L 392,358 L 390,357 L 388,356 L 385,353 L 384,351 L 383,349 L 381,348 L 377,348 L 375,347 L 375,345 L 374,344 L 370,344 L 370,343 L 370,342 L 372,341 L 374,339 L 376,338 L 378,336 L 380,334 L 381,335 L 380,336 L 381,338 L 386,336 L 389,336 L 391,336 L 395,340 L 395,343 L 396,343 L 396,345 L 394,347 L 394,349 L 395,351 L 397,351 L 400,352 Z M 409,315 L 411,313 L 412,314 L 414,313 L 412,312 L 410,311 L 408,309 L 405,309 L 403,308 L 401,310 L 398,309 L 395,308 L 393,309 L 390,313 L 388,310 L 385,309 L 380,311 L 379,312 L 378,314 L 379,316 L 380,318 L 383,319 L 387,319 L 389,319 L 391,320 L 391,323 L 393,323 L 395,323 L 398,324 L 399,324 L 397,322 L 399,321 L 401,320 L 400,318 L 401,317 L 402,317 L 404,318 L 405,318 L 407,316 L 406,315 L 409,315 Z M 403,308 L 404,309 L 406,310 L 409,309 L 410,310 L 411,311 L 413,312 L 414,313 L 416,314 L 418,314 L 419,314 L 421,312 L 423,311 L 422,310 L 421,309 L 420,309 L 418,309 L 417,307 L 414,306 L 413,305 L 414,304 L 414,303 L 412,297 L 407,291 L 400,286 L 385,284 L 383,287 L 386,289 L 390,289 L 390,292 L 391,294 L 391,296 L 394,299 L 396,300 L 398,302 L 399,304 L 399,307 L 398,307 L 398,309 L 400,311 L 401,310 Z M 442,316 L 443,310 L 434,310 L 432,307 L 429,304 L 416,304 L 415,304 L 413,304 L 413,305 L 413,305 L 414,306 L 415,306 L 417,307 L 417,308 L 419,309 L 420,309 L 420,309 L 421,310 L 422,310 L 422,310 L 423,311 L 423,311 L 421,312 L 420,313 L 419,314 L 419,314 L 419,315 L 420,315 L 421,316 L 421,316 L 422,317 L 423,317 L 424,317 L 426,318 L 428,318 L 429,318 L 429,317 L 431,317 L 433,316 L 434,315 L 435,316 L 439,316 Z M 392,297 L 395,299 L 397,301 L 399,304 L 399,307 L 398,308 L 394,308 L 393,309 L 391,311 L 389,311 L 386,309 L 383,310 L 380,311 L 379,310 L 379,308 L 375,308 L 376,306 L 375,304 L 375,301 L 374,299 L 371,297 L 367,296 L 364,296 L 361,296 L 357,296 L 354,295 L 354,292 L 351,291 L 353,289 L 355,288 L 355,286 L 357,285 L 358,284 L 359,283 L 363,282 L 386,283 L 383,287 L 387,290 L 390,291 L 391,293 L 391,296 Z M 379,311 L 379,309 L 375,307 L 375,303 L 374,299 L 370,296 L 364,296 L 358,296 L 354,294 L 351,291 L 351,294 L 350,297 L 346,295 L 344,296 L 340,295 L 339,294 L 333,292 L 331,294 L 329,295 L 326,297 L 324,299 L 321,301 L 323,304 L 324,307 L 324,310 L 324,313 L 322,318 L 328,322 L 332,323 L 335,321 L 341,317 L 347,315 L 352,314 L 355,313 L 357,315 L 359,317 L 365,317 L 370,316 L 374,314 L 378,315 L 379,312 Z M 444,301 L 446,300 L 449,303 L 449,301 L 450,300 L 450,302 L 453,301 L 453,299 L 456,299 L 458,297 L 460,296 L 463,296 L 463,297 L 466,295 L 461,289 L 460,282 L 454,283 L 448,283 L 448,278 L 449,274 L 448,274 L 447,275 L 439,277 L 436,278 L 429,278 L 426,275 L 422,272 L 416,275 L 414,276 L 413,276 L 415,279 L 416,286 L 415,287 L 413,288 L 409,290 L 411,297 L 412,302 L 433,305 L 436,311 L 445,311 L 447,309 L 444,303 Z M 399,354 L 400,356 L 400,357 L 399,358 L 398,359 L 397,361 L 397,362 L 399,362 L 399,362 L 401,363 L 402,363 L 403,364 L 404,365 L 404,366 L 404,367 L 406,368 L 408,367 L 417,366 L 426,366 L 419,351 L 419,347 L 416,345 L 414,345 L 410,344 L 407,343 L 407,341 L 404,340 L 402,339 L 400,341 L 399,340 L 398,342 L 396,343 L 395,345 L 395,346 L 393,347 L 394,349 L 395,350 L 396,351 L 398,352 L 399,352 L 399,354 Z M 445,305 L 460,322 L 465,323 L 466,323 L 469,324 L 470,324 L 471,323 L 470,321 L 471,320 L 471,318 L 472,316 L 473,313 L 473,312 L 476,311 L 477,310 L 478,309 L 479,308 L 479,307 L 478,306 L 478,306 L 479,301 L 477,295 L 482,289 L 476,290 L 473,286 L 473,282 L 466,285 L 459,286 L 465,294 L 464,298 L 463,296 L 460,296 L 458,297 L 456,299 L 453,299 L 453,301 L 450,302 L 451,300 L 449,301 L 448,303 L 446,300 L 444,302 Z M 423,328 L 426,329 L 428,331 L 429,332 L 429,332 L 428,334 L 426,334 L 425,335 L 423,335 L 422,336 L 423,337 L 423,338 L 423,339 L 422,340 L 421,341 L 420,343 L 418,344 L 416,345 L 415,345 L 413,345 L 410,344 L 409,344 L 407,342 L 407,341 L 406,341 L 403,338 L 406,334 L 409,331 L 410,329 L 411,329 L 412,329 L 413,329 L 414,329 L 415,329 L 416,329 L 416,329 L 418,329 L 419,330 L 421,330 L 422,330 L 421,330 L 422,329 L 423,328 Z M 459,321 L 454,322 L 457,325 L 456,329 L 461,333 L 460,338 L 460,347 L 440,392 L 476,359 L 480,351 L 480,344 L 483,339 L 492,336 L 495,328 L 490,322 L 485,316 L 487,310 L 479,305 L 477,306 L 478,306 L 479,307 L 479,307 L 478,308 L 477,310 L 476,310 L 476,311 L 474,312 L 474,313 L 473,314 L 472,317 L 472,318 L 471,319 L 470,320 L 470,321 L 471,323 L 471,324 L 470,324 L 468,323 L 465,323 L 465,323 L 461,324 Z M 248,314 L 254,315 L 256,316 L 260,318 L 263,320 L 263,324 L 259,323 L 257,321 L 255,322 L 256,323 L 257,324 L 259,327 L 254,328 L 254,331 L 255,333 L 255,334 L 254,336 L 252,336 L 250,338 L 243,337 L 236,335 L 236,333 L 236,331 L 238,329 L 238,328 L 239,324 L 235,323 L 233,320 L 231,318 L 228,318 L 224,318 L 221,318 L 219,312 L 224,312 L 230,313 L 236,313 L 233,311 L 233,309 L 238,313 L 241,313 L 244,314 L 248,314 Z M 322,320 L 325,320 L 327,321 L 329,323 L 331,323 L 333,325 L 336,327 L 336,328 L 335,330 L 335,332 L 333,333 L 332,332 L 330,331 L 326,330 L 325,331 L 323,330 L 322,330 L 321,329 L 319,329 L 316,327 L 315,327 L 315,329 L 315,331 L 314,332 L 313,332 L 311,332 L 309,332 L 308,332 L 307,331 L 306,329 L 306,326 L 304,325 L 303,324 L 304,321 L 305,322 L 306,324 L 308,325 L 311,324 L 314,322 L 317,320 L 322,319 Z M 307,331 L 302,335 L 304,339 L 304,341 L 304,342 L 305,344 L 307,346 L 308,347 L 310,348 L 311,346 L 311,344 L 311,340 L 315,339 L 319,339 L 321,341 L 322,345 L 323,348 L 327,349 L 326,349 L 328,349 L 329,347 L 328,346 L 329,344 L 329,343 L 331,345 L 334,345 L 332,343 L 333,342 L 333,339 L 333,339 L 335,339 L 335,337 L 336,335 L 333,334 L 330,331 L 323,330 L 320,329 L 315,327 L 315,332 L 312,332 L 308,331 Z M 179,261 L 170,263 L 161,261 L 152,260 L 144,260 L 132,259 L 124,257 L 130,262 L 131,265 L 131,269 L 130,275 L 128,279 L 123,281 L 118,283 L 117,286 L 116,290 L 112,292 L 114,293 L 117,292 L 120,294 L 122,292 L 126,290 L 134,287 L 139,287 L 143,289 L 147,293 L 150,294 L 156,295 L 161,296 L 165,297 L 175,300 L 186,300 L 190,299 L 190,291 L 203,291 L 204,287 L 201,278 L 200,271 L 193,268 L 188,263 L 179,261 Z M 432,348 L 432,347 L 432,346 L 431,345 L 431,343 L 432,341 L 432,340 L 434,337 L 433,335 L 434,335 L 436,336 L 436,335 L 437,335 L 438,336 L 438,336 L 440,337 L 442,337 L 443,336 L 444,334 L 447,333 L 447,327 L 450,327 L 452,328 L 453,329 L 455,329 L 458,330 L 460,331 L 461,333 L 461,334 L 461,337 L 460,338 L 460,339 L 461,342 L 460,351 L 460,356 L 434,383 L 428,380 L 425,369 L 426,366 L 426,361 L 432,353 Z M 395,365 L 393,366 L 390,367 L 388,367 L 387,367 L 390,368 L 390,369 L 388,371 L 387,372 L 386,375 L 387,377 L 389,378 L 392,379 L 395,379 L 395,380 L 397,381 L 398,383 L 400,382 L 402,382 L 403,383 L 403,384 L 405,385 L 416,387 L 424,382 L 419,366 L 408,367 L 405,367 L 404,366 L 404,366 L 404,364 L 402,364 L 402,364 L 400,362 L 399,362 L 398,362 L 397,361 L 398,359 L 396,359 L 395,361 L 395,362 L 395,364 Z M 300,357 L 302,360 L 301,361 L 300,361 L 301,362 L 302,363 L 300,364 L 299,364 L 298,366 L 296,367 L 295,367 L 293,368 L 291,368 L 290,369 L 289,370 L 287,371 L 288,373 L 288,374 L 289,374 L 290,376 L 289,377 L 288,377 L 286,377 L 284,376 L 282,375 L 281,374 L 280,373 L 279,373 L 279,372 L 278,370 L 276,370 L 274,369 L 273,368 L 273,366 L 274,364 L 276,363 L 275,359 L 277,356 L 284,354 L 291,355 L 299,355 Z M 238,375 L 231,378 L 221,376 L 213,374 L 211,369 L 210,372 L 204,372 L 195,371 L 186,369 L 179,372 L 184,373 L 189,374 L 194,377 L 202,376 L 209,377 L 218,379 L 231,384 L 238,386 L 241,387 L 249,397 L 257,405 L 263,408 L 268,418 L 281,427 L 283,416 L 281,409 L 280,400 L 275,395 L 281,388 L 284,390 L 285,398 L 293,393 L 288,388 L 285,385 L 282,383 L 277,380 L 270,376 L 263,375 L 255,375 L 248,373 L 239,375 Z M 50,311 L 58,308 L 64,307 L 68,301 L 76,298 L 84,296 L 92,293 L 100,294 L 108,298 L 112,292 L 116,290 L 117,287 L 118,283 L 123,281 L 128,279 L 130,274 L 131,269 L 131,265 L 128,261 L 124,255 L 113,250 L 100,249 L 87,246 L 75,245 L 65,239 L 48,234 L 36,240 L 24,243 L 17,251 L 18,257 L 22,264 L 29,266 L 29,270 L 30,277 L 32,283 L 35,288 L 37,293 L 38,298 L 40,302 L 45,305 L 49,310 Z M 111,296 L 114,301 L 118,304 L 125,310 L 126,316 L 126,322 L 128,329 L 128,336 L 136,336 L 143,334 L 145,329 L 146,324 L 152,322 L 159,323 L 164,324 L 171,324 L 176,325 L 182,323 L 189,324 L 193,324 L 199,323 L 204,324 L 201,313 L 189,303 L 181,300 L 170,301 L 180,304 L 182,310 L 182,314 L 170,313 L 162,311 L 153,309 L 149,304 L 143,302 L 137,300 L 133,296 L 123,292 L 122,294 L 119,292 L 115,292 L 112,295 Z M 124,292 L 132,295 L 133,298 L 135,299 L 138,300 L 141,301 L 143,302 L 146,304 L 149,305 L 151,308 L 154,310 L 158,311 L 163,311 L 166,312 L 171,313 L 177,314 L 183,314 L 184,311 L 182,309 L 182,306 L 179,304 L 175,303 L 170,300 L 168,298 L 164,297 L 161,296 L 160,296 L 157,295 L 155,294 L 152,294 L 149,294 L 147,294 L 146,292 L 144,291 L 143,289 L 141,287 L 138,286 L 136,287 L 133,287 L 129,290 L 125,291 Z M 111,296 L 106,297 L 101,294 L 96,291 L 90,296 L 84,296 L 79,297 L 72,299 L 67,301 L 64,305 L 61,309 L 57,309 L 51,311 L 52,314 L 55,318 L 59,322 L 64,325 L 68,326 L 73,329 L 77,331 L 82,333 L 87,334 L 91,334 L 97,335 L 100,338 L 104,340 L 108,343 L 114,345 L 124,346 L 127,341 L 128,337 L 129,333 L 127,328 L 126,323 L 126,320 L 125,315 L 125,310 L 120,307 L 116,303 L 115,301 L 113,297 Z M 202,292 L 205,294 L 207,294 L 208,296 L 208,297 L 209,298 L 209,299 L 209,300 L 209,301 L 210,302 L 211,302 L 211,303 L 213,306 L 210,305 L 210,305 L 207,305 L 206,304 L 205,304 L 203,304 L 202,305 L 201,305 L 200,306 L 199,307 L 197,305 L 196,305 L 195,304 L 192,303 L 190,303 L 190,300 L 190,299 L 190,297 L 188,295 L 188,294 L 188,293 L 189,292 L 190,291 L 190,290 L 192,290 L 193,291 L 195,292 L 198,293 L 201,292 Z M 229,334 L 229,342 L 221,351 L 229,357 L 232,359 L 242,358 L 251,358 L 256,363 L 247,367 L 238,375 L 232,378 L 221,377 L 213,374 L 212,370 L 210,370 L 206,372 L 198,372 L 189,370 L 182,369 L 175,376 L 162,376 L 157,370 L 152,363 L 148,355 L 140,354 L 129,354 L 125,348 L 128,340 L 133,336 L 142,335 L 145,328 L 150,322 L 158,323 L 165,324 L 174,325 L 180,323 L 190,324 L 194,324 L 203,323 L 210,333 L 225,334 Z M 208,324 L 211,323 L 211,321 L 211,320 L 213,319 L 214,320 L 217,319 L 218,319 L 219,318 L 222,318 L 223,317 L 225,317 L 228,318 L 230,318 L 231,318 L 231,319 L 233,320 L 235,321 L 236,323 L 238,324 L 240,325 L 238,327 L 238,328 L 238,329 L 238,330 L 236,331 L 235,332 L 235,333 L 234,334 L 227,334 L 223,333 L 220,333 L 217,334 L 215,334 L 213,334 L 212,333 L 211,333 L 209,332 L 210,329 L 208,328 L 207,324 Z M 237,299 L 239,299 L 241,300 L 242,300 L 244,300 L 245,301 L 245,302 L 244,304 L 246,306 L 246,309 L 247,311 L 247,312 L 246,314 L 243,313 L 241,313 L 238,313 L 234,310 L 233,309 L 235,313 L 233,313 L 228,312 L 223,311 L 219,309 L 219,307 L 220,305 L 220,303 L 221,302 L 222,300 L 222,300 L 223,298 L 225,296 L 226,294 L 228,295 L 228,296 L 228,296 L 229,297 L 230,295 L 231,296 L 231,297 L 233,298 L 236,298 Z M 231,295 L 229,296 L 228,297 L 228,296 L 228,296 L 227,295 L 225,294 L 225,296 L 224,299 L 222,300 L 222,300 L 221,302 L 220,303 L 220,305 L 219,307 L 216,307 L 213,307 L 212,303 L 210,302 L 209,300 L 209,298 L 208,296 L 206,295 L 203,291 L 202,289 L 202,287 L 202,286 L 206,285 L 210,284 L 213,283 L 215,283 L 218,285 L 220,284 L 223,285 L 226,285 L 226,287 L 225,288 L 227,290 L 226,292 L 230,291 L 232,292 L 231,294 Z M 219,308 L 220,310 L 221,310 L 221,311 L 218,312 L 219,317 L 218,318 L 218,319 L 217,319 L 216,319 L 214,320 L 213,320 L 212,319 L 211,320 L 211,321 L 211,321 L 211,322 L 209,323 L 208,324 L 206,320 L 206,319 L 206,317 L 204,315 L 202,314 L 201,313 L 200,309 L 199,307 L 200,306 L 201,305 L 202,305 L 203,305 L 204,303 L 205,304 L 206,304 L 207,304 L 209,305 L 210,305 L 211,305 L 213,306 L 212,307 L 213,307 L 216,309 L 216,307 Z M 274,364 L 275,361 L 276,355 L 268,353 L 261,352 L 260,353 L 259,355 L 257,356 L 256,357 L 253,357 L 251,356 L 248,356 L 250,358 L 251,359 L 254,360 L 255,362 L 256,363 L 253,365 L 250,366 L 248,367 L 245,368 L 243,370 L 241,373 L 238,375 L 241,374 L 245,373 L 246,374 L 249,373 L 251,375 L 252,376 L 255,376 L 256,376 L 258,377 L 259,375 L 262,375 L 264,375 L 266,373 L 267,370 L 269,370 L 272,367 Z M 249,339 L 252,341 L 260,349 L 260,352 L 260,353 L 259,355 L 257,355 L 257,356 L 256,357 L 254,358 L 252,357 L 250,355 L 248,356 L 245,357 L 243,358 L 241,359 L 238,360 L 237,359 L 235,359 L 232,359 L 231,360 L 230,359 L 230,359 L 230,358 L 227,358 L 224,356 L 222,354 L 220,352 L 221,351 L 220,350 L 223,349 L 227,347 L 227,345 L 229,342 L 229,340 L 229,339 L 229,337 L 230,336 L 232,334 L 239,335 L 244,337 Z M 285,332 L 283,334 L 282,334 L 279,335 L 278,335 L 275,336 L 273,336 L 272,335 L 274,334 L 273,333 L 272,332 L 272,330 L 270,333 L 267,332 L 264,330 L 261,329 L 258,330 L 256,329 L 258,327 L 258,327 L 256,324 L 256,323 L 256,322 L 256,321 L 257,321 L 259,323 L 262,323 L 263,323 L 263,320 L 265,319 L 268,320 L 269,321 L 273,322 L 276,322 L 277,325 L 279,326 L 280,323 L 281,324 L 282,325 L 283,326 L 283,329 L 286,331 Z M 256,328 L 256,329 L 258,330 L 260,329 L 262,330 L 265,330 L 267,331 L 270,334 L 269,334 L 268,335 L 268,335 L 267,337 L 266,339 L 266,340 L 267,341 L 266,341 L 266,342 L 265,343 L 266,343 L 267,344 L 265,344 L 263,343 L 263,344 L 263,344 L 261,344 L 261,345 L 259,344 L 256,344 L 254,342 L 251,339 L 249,338 L 251,337 L 252,336 L 253,336 L 254,336 L 254,336 L 255,335 L 256,334 L 256,333 L 255,331 L 254,330 L 254,330 L 256,328 Z M 266,312 L 271,310 L 274,309 L 279,310 L 279,312 L 282,313 L 283,311 L 283,308 L 288,309 L 290,308 L 292,310 L 292,312 L 293,314 L 293,311 L 294,311 L 296,311 L 297,310 L 297,310 L 299,311 L 300,312 L 298,315 L 300,318 L 295,322 L 291,324 L 288,325 L 283,326 L 282,325 L 281,324 L 280,323 L 280,325 L 277,325 L 276,322 L 273,322 L 270,321 L 268,320 L 265,319 L 262,319 L 258,318 L 255,316 L 255,315 L 260,313 L 264,313 Z M 261,297 L 261,301 L 263,303 L 264,304 L 264,306 L 265,307 L 266,308 L 266,311 L 266,312 L 263,313 L 260,313 L 255,315 L 252,315 L 248,314 L 247,312 L 247,311 L 246,310 L 246,307 L 244,306 L 245,304 L 245,302 L 245,301 L 244,300 L 243,300 L 242,300 L 240,300 L 239,299 L 238,299 L 239,298 L 240,297 L 242,296 L 244,296 L 246,296 L 248,297 L 250,297 L 251,297 L 253,297 L 254,297 L 256,297 L 257,297 L 260,296 Z M 292,300 L 288,302 L 287,304 L 285,305 L 284,306 L 283,308 L 283,310 L 283,312 L 280,313 L 279,312 L 277,309 L 273,309 L 268,311 L 265,311 L 266,310 L 266,307 L 265,306 L 264,305 L 263,303 L 262,302 L 261,298 L 263,297 L 266,296 L 269,296 L 271,294 L 274,294 L 276,294 L 277,293 L 278,293 L 279,292 L 280,291 L 282,290 L 285,291 L 285,290 L 287,291 L 288,290 L 288,292 L 289,294 L 290,296 L 291,298 L 290,300 Z M 282,329 L 284,330 L 286,331 L 285,332 L 284,334 L 285,335 L 288,336 L 288,336 L 289,337 L 290,337 L 291,337 L 292,337 L 293,337 L 297,336 L 298,335 L 300,335 L 301,336 L 302,336 L 302,336 L 302,337 L 303,338 L 303,337 L 302,336 L 303,335 L 305,335 L 306,333 L 307,330 L 306,328 L 306,326 L 305,325 L 303,325 L 303,324 L 301,321 L 294,322 L 294,324 L 291,324 L 289,324 L 288,324 L 288,325 L 287,326 L 283,326 L 284,328 L 283,329 Z M 301,336 L 301,340 L 301,341 L 302,345 L 301,346 L 300,349 L 299,351 L 298,352 L 300,353 L 300,355 L 293,354 L 284,354 L 275,354 L 267,352 L 256,345 L 259,344 L 261,344 L 263,344 L 264,343 L 267,344 L 265,343 L 266,341 L 267,341 L 266,339 L 268,336 L 269,334 L 270,334 L 272,330 L 272,332 L 274,333 L 273,335 L 273,336 L 276,336 L 279,335 L 281,334 L 283,334 L 285,332 L 288,336 L 291,336 L 297,336 L 300,336 Z M 298,298 L 301,297 L 304,297 L 306,296 L 308,295 L 310,295 L 313,294 L 313,295 L 313,297 L 313,298 L 313,299 L 313,301 L 312,303 L 311,304 L 309,306 L 307,308 L 304,309 L 305,310 L 304,311 L 301,313 L 300,311 L 297,311 L 297,310 L 296,310 L 296,311 L 294,311 L 293,310 L 293,313 L 292,313 L 292,312 L 292,310 L 290,308 L 288,309 L 284,308 L 283,308 L 283,306 L 284,305 L 287,305 L 287,303 L 288,301 L 292,300 L 295,299 Z M 292,300 L 295,299 L 298,298 L 300,296 L 303,295 L 304,294 L 307,293 L 308,293 L 309,292 L 311,290 L 311,286 L 309,286 L 309,284 L 310,283 L 312,282 L 313,281 L 313,279 L 312,278 L 310,278 L 308,280 L 307,281 L 305,283 L 303,285 L 302,286 L 299,287 L 297,287 L 296,288 L 295,288 L 294,289 L 293,289 L 291,289 L 290,290 L 289,291 L 288,292 L 288,293 L 289,294 L 290,295 L 290,297 L 291,298 L 289,299 L 292,300 Z M 321,300 L 322,301 L 323,302 L 323,303 L 324,304 L 324,305 L 324,306 L 323,307 L 323,308 L 324,310 L 324,311 L 323,312 L 324,313 L 323,315 L 323,316 L 322,318 L 322,319 L 317,320 L 314,322 L 309,324 L 306,324 L 305,322 L 303,321 L 301,319 L 299,317 L 298,315 L 300,314 L 302,312 L 304,311 L 305,310 L 304,309 L 306,308 L 308,306 L 310,305 L 311,304 L 313,303 L 313,304 L 315,303 L 316,303 L 317,303 L 318,301 L 320,301 L 320,300 Z M 334,345 L 333,348 L 334,352 L 335,356 L 332,357 L 331,355 L 329,356 L 329,355 L 326,354 L 324,355 L 322,357 L 315,363 L 308,360 L 300,356 L 300,353 L 299,351 L 300,349 L 301,346 L 302,342 L 302,340 L 302,336 L 304,339 L 304,341 L 304,343 L 305,346 L 309,346 L 310,348 L 311,346 L 311,343 L 313,339 L 318,339 L 321,341 L 322,346 L 325,348 L 326,348 L 328,349 L 329,347 L 328,345 L 327,343 L 330,345 L 334,345 Z" fill="white"
        stroke="white" stroke-width="4" stroke-linejoin="round"/>
</svg>