<svg xmlns="http://www.w3.org/2000/svg" viewBox="0 0 512 512">
  <rect width="512" height="512" rx="96" fill="#16a34a"/>
  <text x="256" y="148" text-anchor="middle" font-size="130" font-weight="800"
        fill="white" font-family="system-ui,sans-serif" letter-spacing="6">TM</text>
  <g>
    <path d="M 335,326 L 332,321 L 337,320 L 343,316 L 349,315 L 353,319 L 355,322 L 360,324 L 364,326 L 368,327 L 369,330 L 369,332 L 372,333 L 371,336 L 369,338 L 369,340 L 370,341 L 369,343 L 364,345 L 359,347 L 354,346 L 348,343 L 344,342 L 347,345 L 344,345 L 343,342 L 340,339 L 335,337 L 336,335 L 335,332 L 335,326 Z M 382,332 L 383,327 L 384,325 L 379,325 L 379,323 L 378,322 L 376,320 L 378,315 L 374,314 L 371,316 L 367,317 L 360,318 L 358,316 L 356,313 L 353,313 L 351,315 L 353,320 L 357,322 L 360,324 L 366,326 L 369,328 L 370,330 L 370,332 L 372,333 L 370,336 L 368,339 L 370,340 L 371,342 L 374,339 L 378,336 L 380,334 Z M 406,326 L 404,326 L 402,325 L 400,325 L 398,324 L 396,324 L 393,323 L 391,322 L 391,319 L 388,319 L 385,319 L 380,318 L 378,316 L 376,320 L 378,321 L 379,323 L 379,324 L 381,325 L 385,325 L 382,329 L 381,333 L 380,335 L 381,338 L 388,336 L 392,337 L 395,342 L 398,340 L 402,340 L 407,333 L 410,328 L 409,326 Z M 419,329 L 415,329 L 413,329 L 410,328 L 409,326 L 405,326 L 403,325 L 401,325 L 399,323 L 398,321 L 400,320 L 400,318 L 401,317 L 403,317 L 405,318 L 407,317 L 406,315 L 409,315 L 411,313 L 413,314 L 415,313 L 418,314 L 420,316 L 420,318 L 420,319 L 422,322 L 420,322 L 422,324 L 422,326 L 421,329 L 419,330 Z M 420,321 L 422,322 L 421,321 L 420,320 L 420,319 L 420,319 L 420,318 L 420,318 L 420,317 L 419,315 L 419,315 L 421,315 L 421,316 L 423,316 L 424,317 L 427,318 L 428,318 L 429,317 L 432,316 L 434,315 L 436,316 L 442,316 L 438,324 L 433,332 L 429,332 L 428,330 L 423,328 L 422,326 L 421,325 L 422,324 L 421,323 L 420,322 Z M 438,336 L 437,335 L 437,335 L 436,336 L 434,335 L 432,334 L 432,332 L 434,329 L 437,326 L 440,322 L 442,318 L 445,312 L 445,311 L 445,311 L 446,309 L 447,309 L 448,309 L 453,316 L 459,321 L 456,321 L 454,322 L 455,324 L 457,325 L 455,327 L 455,329 L 453,329 L 451,328 L 447,326 L 447,333 L 444,334 L 442,336 L 441,337 L 438,336 Z M 432,348 L 432,347 L 432,345 L 431,343 L 432,340 L 434,337 L 432,334 L 431,332 L 429,332 L 429,332 L 429,333 L 428,334 L 426,334 L 425,335 L 424,335 L 423,335 L 422,336 L 423,337 L 423,338 L 423,338 L 423,339 L 422,340 L 421,341 L 421,342 L 420,343 L 418,344 L 417,345 L 419,346 L 419,348 L 418,350 L 420,354 L 432,352 Z M 395,365 L 391,367 L 387,367 L 390,369 L 388,372 L 386,375 L 383,374 L 381,374 L 380,378 L 379,379 L 378,376 L 374,376 L 371,375 L 370,373 L 372,370 L 370,366 L 371,364 L 378,367 L 381,362 L 381,358 L 381,354 L 379,352 L 376,348 L 381,349 L 383,351 L 386,354 L 390,357 L 394,358 L 397,359 L 395,361 L 396,364 Z M 386,375 L 389,378 L 393,379 L 395,380 L 398,383 L 400,382 L 403,383 L 403,385 L 416,387 L 436,389 L 426,412 L 410,407 L 405,408 L 398,409 L 390,410 L 388,406 L 388,401 L 380,398 L 374,390 L 371,384 L 367,383 L 367,381 L 370,380 L 374,380 L 379,382 L 379,379 L 380,377 L 381,376 L 381,373 L 384,374 L 386,375 Z M 366,384 L 370,380 L 378,382 L 378,377 L 372,376 L 370,373 L 371,368 L 372,364 L 380,363 L 381,356 L 379,352 L 375,346 L 371,344 L 362,346 L 355,346 L 346,342 L 347,345 L 344,343 L 340,340 L 332,339 L 333,341 L 333,344 L 334,350 L 335,357 L 332,359 L 335,363 L 336,367 L 334,369 L 346,372 L 355,377 L 364,383 Z M 333,357 L 332,357 L 331,356 L 331,355 L 331,356 L 329,356 L 330,355 L 329,355 L 327,354 L 326,354 L 326,355 L 324,355 L 324,356 L 322,357 L 321,359 L 322,364 L 325,367 L 330,369 L 334,370 L 334,369 L 334,368 L 335,367 L 336,367 L 336,366 L 336,365 L 335,363 L 334,362 L 333,362 L 332,360 L 332,358 L 333,357 L 333,357 Z M 399,354 L 400,357 L 399,357 L 397,359 L 394,358 L 391,357 L 388,356 L 385,353 L 383,350 L 381,348 L 376,348 L 375,346 L 374,344 L 370,344 L 370,342 L 371,341 L 374,339 L 377,337 L 379,335 L 381,335 L 381,336 L 385,337 L 389,336 L 393,338 L 395,342 L 396,343 L 395,345 L 393,348 L 395,350 L 398,351 L 399,353 Z M 409,315 L 412,313 L 413,313 L 412,312 L 410,310 L 405,310 L 403,308 L 400,311 L 396,308 L 393,309 L 389,312 L 385,309 L 380,311 L 378,313 L 377,316 L 380,318 L 385,319 L 388,319 L 391,320 L 391,323 L 394,323 L 398,324 L 399,324 L 398,321 L 401,320 L 400,317 L 402,317 L 404,318 L 406,318 L 406,316 L 409,315 Z M 403,308 L 405,309 L 408,310 L 410,310 L 412,311 L 414,313 L 416,314 L 419,314 L 420,313 L 423,311 L 421,310 L 420,309 L 417,308 L 415,306 L 413,305 L 415,304 L 414,300 L 407,291 L 398,285 L 384,285 L 385,289 L 390,290 L 391,293 L 391,296 L 395,299 L 397,301 L 399,305 L 399,307 L 398,309 L 401,310 L 402,309 Z M 442,316 L 439,311 L 432,308 L 426,304 L 415,304 L 413,304 L 413,305 L 413,306 L 415,307 L 417,308 L 419,309 L 420,308 L 420,309 L 422,310 L 422,311 L 423,311 L 421,312 L 420,313 L 419,314 L 419,315 L 420,315 L 421,316 L 422,316 L 424,317 L 427,318 L 428,318 L 429,317 L 432,316 L 434,315 L 436,316 L 441,316 Z M 392,297 L 395,300 L 399,303 L 399,307 L 398,308 L 393,308 L 391,311 L 388,310 L 385,309 L 380,311 L 379,310 L 376,308 L 376,306 L 375,303 L 374,300 L 372,297 L 367,296 L 363,296 L 357,296 L 354,294 L 353,292 L 353,289 L 355,288 L 356,285 L 358,285 L 359,283 L 376,281 L 384,286 L 387,290 L 390,292 L 391,295 Z M 379,311 L 376,308 L 376,305 L 374,299 L 367,296 L 360,296 L 354,293 L 351,292 L 351,296 L 345,295 L 342,295 L 338,295 L 333,293 L 330,295 L 327,297 L 323,300 L 323,303 L 324,306 L 324,311 L 323,316 L 328,321 L 332,321 L 338,319 L 347,315 L 353,313 L 357,314 L 359,317 L 369,317 L 372,315 L 378,314 L 379,311 Z M 444,301 L 447,302 L 449,302 L 450,300 L 452,302 L 453,300 L 456,298 L 459,297 L 462,296 L 463,298 L 463,292 L 461,283 L 453,283 L 448,280 L 449,275 L 447,275 L 443,277 L 436,278 L 429,277 L 423,273 L 416,275 L 414,276 L 413,278 L 416,286 L 414,288 L 411,289 L 411,297 L 420,304 L 433,310 L 445,311 L 448,309 Z M 399,354 L 400,357 L 399,357 L 398,359 L 397,362 L 398,362 L 399,362 L 401,363 L 402,364 L 404,365 L 404,366 L 405,367 L 408,367 L 418,366 L 422,360 L 419,347 L 416,345 L 413,344 L 408,343 L 407,341 L 403,339 L 401,340 L 399,340 L 396,343 L 395,344 L 395,346 L 393,348 L 395,350 L 396,351 L 399,352 L 399,353 Z M 445,305 L 464,324 L 466,323 L 469,324 L 471,324 L 470,321 L 471,319 L 472,317 L 473,313 L 475,312 L 476,310 L 478,309 L 479,307 L 478,306 L 479,305 L 477,297 L 482,289 L 475,290 L 475,283 L 465,285 L 462,291 L 464,298 L 463,296 L 459,297 L 456,299 L 453,300 L 451,302 L 451,300 L 449,303 L 446,300 L 444,303 Z M 423,328 L 428,330 L 429,332 L 429,332 L 427,334 L 425,335 L 423,335 L 423,337 L 423,338 L 422,339 L 421,341 L 419,343 L 417,345 L 415,345 L 412,345 L 409,344 L 407,342 L 406,341 L 404,339 L 406,334 L 410,330 L 411,329 L 413,329 L 414,329 L 415,329 L 416,329 L 418,329 L 419,330 L 422,330 L 421,329 L 422,328 Z M 459,321 L 455,324 L 454,328 L 461,333 L 460,339 L 459,363 L 474,359 L 480,349 L 480,341 L 491,337 L 495,326 L 487,319 L 487,312 L 479,305 L 477,306 L 478,307 L 479,307 L 478,309 L 477,310 L 476,311 L 473,312 L 473,313 L 472,316 L 471,318 L 471,320 L 470,321 L 471,324 L 470,324 L 468,324 L 465,323 L 464,324 Z M 248,314 L 253,315 L 258,318 L 263,321 L 262,323 L 257,321 L 255,322 L 256,324 L 259,327 L 253,329 L 256,332 L 255,335 L 253,336 L 250,337 L 243,337 L 234,334 L 236,331 L 238,329 L 239,326 L 236,323 L 232,320 L 230,318 L 225,318 L 220,317 L 221,311 L 229,312 L 236,314 L 232,308 L 238,313 L 241,313 L 245,314 Z M 322,320 L 327,321 L 329,322 L 331,323 L 334,325 L 337,328 L 336,330 L 334,332 L 333,333 L 331,331 L 326,330 L 324,331 L 322,330 L 321,329 L 319,328 L 315,327 L 315,328 L 315,332 L 313,332 L 312,332 L 309,332 L 308,331 L 306,330 L 306,326 L 303,325 L 303,321 L 305,322 L 307,324 L 310,324 L 314,322 L 318,320 Z M 307,331 L 303,337 L 303,340 L 304,342 L 306,345 L 309,346 L 311,348 L 311,346 L 311,341 L 315,339 L 320,339 L 322,345 L 324,348 L 326,348 L 328,349 L 329,347 L 329,345 L 328,343 L 332,345 L 332,344 L 333,342 L 332,339 L 333,339 L 336,338 L 336,335 L 332,331 L 323,330 L 319,329 L 315,330 L 312,332 L 307,331 Z M 179,261 L 167,262 L 155,261 L 144,260 L 129,257 L 127,261 L 131,265 L 131,271 L 130,277 L 123,281 L 118,283 L 116,289 L 112,291 L 115,293 L 119,293 L 122,293 L 128,290 L 138,286 L 143,289 L 147,294 L 154,294 L 160,296 L 168,298 L 182,300 L 190,300 L 192,290 L 202,287 L 202,279 L 199,269 L 192,264 L 180,262 Z M 432,348 L 432,347 L 432,345 L 431,343 L 432,341 L 434,339 L 434,336 L 434,335 L 436,336 L 437,335 L 438,336 L 438,336 L 441,337 L 442,336 L 444,334 L 447,331 L 449,327 L 451,328 L 453,329 L 455,329 L 460,331 L 461,333 L 461,335 L 460,338 L 460,339 L 461,343 L 460,353 L 443,385 L 428,380 L 423,368 L 429,364 L 432,353 Z M 395,365 L 392,366 L 389,366 L 387,367 L 390,368 L 389,370 L 387,372 L 386,375 L 388,378 L 392,379 L 396,379 L 397,381 L 398,383 L 400,382 L 403,382 L 403,384 L 406,385 L 419,382 L 419,366 L 408,367 L 404,367 L 404,366 L 403,364 L 402,363 L 400,362 L 398,362 L 397,362 L 398,359 L 396,360 L 395,362 L 395,364 Z M 300,357 L 302,360 L 300,361 L 301,362 L 302,363 L 300,364 L 298,366 L 295,368 L 293,368 L 291,368 L 289,369 L 288,371 L 288,373 L 288,374 L 290,376 L 289,377 L 287,376 L 285,377 L 282,375 L 280,374 L 279,373 L 279,372 L 278,370 L 274,369 L 273,368 L 273,365 L 276,363 L 275,359 L 277,354 L 290,354 L 299,355 Z M 238,375 L 227,377 L 215,375 L 211,369 L 208,371 L 198,372 L 186,369 L 176,374 L 187,373 L 194,377 L 204,377 L 213,378 L 231,384 L 239,387 L 244,391 L 257,405 L 265,412 L 275,428 L 284,416 L 280,406 L 275,398 L 280,388 L 282,392 L 290,395 L 288,388 L 284,384 L 280,382 L 271,375 L 260,375 L 252,375 L 239,374 Z M 50,311 L 60,309 L 66,302 L 76,298 L 88,296 L 98,293 L 108,298 L 113,291 L 117,288 L 118,282 L 125,280 L 130,276 L 130,268 L 131,264 L 124,257 L 112,249 L 94,248 L 77,245 L 63,238 L 42,240 L 27,243 L 16,252 L 19,261 L 28,266 L 29,272 L 30,280 L 35,287 L 37,294 L 39,300 L 44,305 L 50,311 Z M 111,296 L 114,303 L 122,309 L 125,317 L 125,325 L 128,334 L 137,336 L 143,331 L 145,325 L 153,322 L 161,324 L 169,324 L 177,325 L 185,324 L 193,323 L 200,323 L 206,319 L 191,303 L 180,300 L 175,303 L 181,309 L 180,314 L 165,312 L 155,310 L 147,304 L 140,300 L 133,297 L 122,292 L 120,294 L 116,293 L 111,295 Z M 124,292 L 132,296 L 134,299 L 138,300 L 142,302 L 145,304 L 149,305 L 152,308 L 157,311 L 163,311 L 168,312 L 174,314 L 183,314 L 184,310 L 182,308 L 179,304 L 173,303 L 169,299 L 164,297 L 161,296 L 158,296 L 155,294 L 151,294 L 148,294 L 146,292 L 144,290 L 141,288 L 138,286 L 135,287 L 130,289 L 125,291 Z M 111,296 L 104,296 L 97,292 L 90,296 L 82,295 L 74,299 L 67,301 L 64,307 L 59,308 L 51,311 L 53,315 L 57,321 L 63,325 L 69,327 L 76,331 L 81,333 L 88,334 L 94,334 L 100,338 L 105,341 L 112,344 L 123,346 L 128,340 L 128,335 L 128,329 L 126,322 L 125,317 L 125,311 L 120,306 L 113,303 L 114,297 Z M 202,292 L 205,295 L 208,295 L 208,297 L 209,298 L 209,299 L 209,301 L 210,302 L 210,303 L 213,305 L 210,305 L 209,305 L 206,304 L 205,304 L 203,304 L 202,305 L 201,306 L 199,307 L 197,305 L 195,304 L 192,303 L 190,302 L 190,299 L 190,297 L 188,295 L 188,293 L 189,292 L 190,291 L 191,290 L 192,291 L 195,292 L 200,292 Z M 229,334 L 226,346 L 223,355 L 232,359 L 245,357 L 254,361 L 247,367 L 235,376 L 226,376 L 214,374 L 211,368 L 208,371 L 198,372 L 187,369 L 177,373 L 163,376 L 155,368 L 150,358 L 140,354 L 126,354 L 126,343 L 132,336 L 143,332 L 146,324 L 157,323 L 167,325 L 178,324 L 189,324 L 196,323 L 208,328 L 223,333 Z M 208,324 L 211,322 L 211,320 L 213,319 L 215,320 L 217,319 L 219,318 L 223,318 L 224,318 L 226,318 L 229,318 L 232,318 L 232,320 L 235,321 L 236,323 L 239,324 L 239,327 L 238,328 L 238,329 L 237,331 L 235,332 L 235,333 L 231,334 L 225,334 L 220,333 L 216,334 L 214,334 L 212,333 L 210,333 L 209,331 L 208,328 L 208,324 Z M 237,299 L 240,299 L 242,300 L 244,300 L 245,301 L 245,303 L 246,306 L 246,310 L 247,312 L 246,314 L 242,313 L 239,313 L 234,310 L 233,311 L 235,313 L 228,312 L 221,311 L 219,307 L 220,305 L 220,303 L 221,301 L 222,300 L 224,297 L 225,294 L 228,295 L 228,296 L 228,297 L 230,295 L 231,296 L 232,298 L 236,298 Z M 231,295 L 229,296 L 228,296 L 228,296 L 226,295 L 225,295 L 223,299 L 222,300 L 221,301 L 219,303 L 219,305 L 217,307 L 212,307 L 211,303 L 209,301 L 209,298 L 208,295 L 202,292 L 202,289 L 202,286 L 206,286 L 211,284 L 215,283 L 218,285 L 220,285 L 225,285 L 226,287 L 226,289 L 227,291 L 230,291 L 232,293 Z M 219,308 L 221,310 L 221,311 L 218,312 L 219,318 L 218,318 L 217,319 L 215,320 L 213,320 L 212,320 L 211,320 L 211,321 L 210,323 L 208,324 L 206,320 L 206,318 L 204,316 L 202,314 L 200,311 L 199,307 L 201,305 L 201,305 L 203,305 L 204,304 L 206,304 L 207,305 L 210,305 L 211,305 L 213,306 L 213,307 L 215,308 L 217,307 Z M 274,364 L 275,358 L 273,354 L 261,352 L 260,353 L 257,355 L 256,356 L 253,357 L 249,356 L 249,358 L 252,359 L 254,361 L 255,363 L 252,365 L 250,366 L 246,367 L 243,370 L 239,373 L 240,374 L 244,374 L 247,373 L 250,374 L 252,376 L 255,376 L 257,376 L 259,375 L 262,375 L 264,374 L 267,371 L 269,370 L 272,366 Z M 249,339 L 254,343 L 261,352 L 260,353 L 259,355 L 257,356 L 256,357 L 253,357 L 250,356 L 248,356 L 244,357 L 242,358 L 238,360 L 236,359 L 233,359 L 231,360 L 230,359 L 230,358 L 227,358 L 223,355 L 221,353 L 221,351 L 221,350 L 226,347 L 227,345 L 229,342 L 229,339 L 229,337 L 231,336 L 237,335 L 244,337 Z M 285,332 L 283,334 L 280,335 L 277,335 L 274,336 L 272,335 L 274,334 L 272,332 L 272,330 L 270,334 L 266,330 L 261,329 L 257,329 L 257,328 L 258,326 L 256,324 L 256,322 L 256,321 L 257,321 L 261,322 L 263,323 L 263,319 L 266,319 L 269,321 L 274,322 L 276,325 L 280,325 L 280,323 L 282,325 L 283,326 L 284,330 Z M 256,328 L 257,329 L 259,329 L 262,330 L 265,330 L 269,333 L 269,334 L 268,335 L 267,337 L 266,339 L 267,341 L 266,342 L 266,343 L 266,343 L 266,344 L 264,343 L 263,344 L 261,344 L 261,345 L 259,344 L 256,344 L 251,339 L 250,338 L 251,336 L 253,336 L 254,336 L 255,335 L 256,334 L 256,332 L 254,331 L 253,329 Z M 266,312 L 272,309 L 278,310 L 279,312 L 283,313 L 283,310 L 288,309 L 292,309 L 292,312 L 293,314 L 293,310 L 296,311 L 297,310 L 297,311 L 300,312 L 299,316 L 302,320 L 291,324 L 288,325 L 282,325 L 281,324 L 280,324 L 278,326 L 276,322 L 272,322 L 269,320 L 265,319 L 260,318 L 256,316 L 255,315 L 261,312 Z M 261,297 L 262,302 L 264,303 L 264,306 L 266,307 L 266,310 L 266,311 L 262,313 L 258,314 L 252,315 L 248,313 L 246,312 L 246,310 L 246,307 L 244,305 L 245,303 L 245,301 L 244,300 L 242,300 L 240,299 L 239,299 L 238,299 L 240,297 L 242,296 L 245,296 L 248,297 L 250,298 L 252,297 L 254,297 L 257,297 L 259,297 Z M 292,300 L 287,302 L 286,305 L 284,306 L 283,308 L 283,311 L 280,313 L 279,311 L 274,308 L 268,311 L 266,311 L 266,308 L 265,306 L 264,304 L 262,302 L 261,298 L 264,296 L 268,296 L 271,294 L 275,294 L 277,293 L 278,293 L 279,292 L 281,290 L 285,291 L 286,291 L 288,290 L 288,292 L 289,295 L 291,297 L 290,300 Z M 282,329 L 286,331 L 286,332 L 284,334 L 286,335 L 288,336 L 289,337 L 290,336 L 291,338 L 293,337 L 298,335 L 299,335 L 301,336 L 302,336 L 302,337 L 303,338 L 303,337 L 303,335 L 305,335 L 306,333 L 306,328 L 306,326 L 304,325 L 303,325 L 301,321 L 294,323 L 293,324 L 289,324 L 288,325 L 287,325 L 283,326 L 283,328 Z M 301,336 L 302,341 L 303,344 L 301,346 L 299,350 L 299,351 L 300,353 L 300,355 L 289,354 L 276,355 L 266,352 L 257,344 L 261,344 L 263,344 L 266,344 L 265,343 L 266,342 L 266,340 L 267,336 L 269,334 L 270,333 L 272,332 L 274,333 L 272,335 L 275,336 L 279,335 L 282,334 L 284,333 L 288,336 L 290,338 L 299,334 Z M 298,298 L 302,297 L 305,296 L 308,295 L 311,294 L 313,295 L 313,297 L 313,299 L 313,301 L 312,303 L 310,305 L 307,307 L 304,309 L 305,311 L 301,313 L 300,311 L 297,310 L 296,310 L 295,311 L 293,310 L 293,313 L 292,313 L 292,310 L 290,308 L 286,309 L 283,308 L 283,306 L 285,305 L 287,304 L 288,301 L 294,300 Z M 292,300 L 296,299 L 299,297 L 303,295 L 305,294 L 308,293 L 309,292 L 312,289 L 310,286 L 309,285 L 311,283 L 312,282 L 313,280 L 312,278 L 309,279 L 307,281 L 305,283 L 302,285 L 301,286 L 297,287 L 296,288 L 294,289 L 293,289 L 291,290 L 289,290 L 288,292 L 288,293 L 289,295 L 290,296 L 290,298 L 290,300 Z M 321,300 L 322,301 L 323,303 L 324,304 L 324,306 L 323,307 L 323,309 L 324,310 L 323,312 L 324,314 L 323,316 L 322,318 L 320,319 L 314,322 L 309,325 L 304,324 L 303,321 L 300,318 L 298,316 L 300,314 L 304,311 L 305,310 L 304,308 L 308,307 L 310,305 L 312,303 L 313,303 L 315,303 L 316,303 L 318,301 L 320,301 Z M 334,345 L 334,349 L 335,354 L 332,357 L 331,356 L 330,355 L 326,354 L 324,356 L 320,363 L 308,360 L 300,354 L 298,352 L 300,349 L 302,346 L 302,341 L 302,336 L 302,340 L 304,342 L 305,346 L 308,347 L 312,347 L 311,343 L 315,339 L 320,340 L 322,346 L 326,348 L 327,350 L 329,347 L 329,345 L 329,344 L 334,345 Z" fill="white" fill-opacity="0.9"
          stroke="#16a34a" stroke-width="1.5" stroke-opacity="0.4"/>
  </g>
  <path d="M 44,365 L 118,369 L 192,379 L 241,389 L 290,394 L 339,399 L 388,414 L 413,419" fill="none" stroke="#a7d8f0" stroke-width="2.5"
        stroke-linecap="round" stroke-opacity="0.7"/>
  <path d="M 438,306 L 433,315 L 433,325 L 433,335 L 428,345 L 428,355" fill="none" stroke="#a7d8f0" stroke-width="2"
        stroke-linecap="round" stroke-opacity="0.7"/>
</svg>